<?xml version="1.0" standalone="no"?>
<!DOCTYPE svg PUBLIC "-//W3C//DTD SVG 20010904//EN"
 "http://www.w3.org/TR/2001/REC-SVG-20010904/DTD/svg10.dtd">
<svg version="1.0" xmlns="http://www.w3.org/2000/svg"
 width="192.000000pt" height="192.000000pt" viewBox="0 0 192.000000 192.000000"
 preserveAspectRatio="xMidYMid meet">
<metadata>
Created by potrace 1.14, written by Peter Selinger 2001-2017
</metadata>
<g transform="translate(0.000000,192.000000) scale(0.100000,-0.100000)"
fill="#000000" stroke="none">
<path d="M455 1908 c-43 -15 -59 -32 -95 -100 -44 -82 -72 -109 -155 -147
-103 -47 -119 -57 -133 -85 -36 -71 -13 -135 79 -220 70 -66 119 -96 231 -141
83 -33 257 -84 303 -87 13 -1 22 -4 20 -7 -3 -2 -60 -18 -128 -36 -68 -17
-129 -35 -135 -39 -7 -4 -22 -9 -34 -11 -56 -11 -188 -89 -250 -148 -80 -77
-101 -110 -101 -162 0 -54 26 -92 82 -117 156 -69 165 -76 232 -195 36 -64 62
-83 128 -90 70 -7 140 29 233 121 73 71 121 151 177 291 l20 50 1 -80 c1 -44
3 -93 5 -110 2 -16 6 -53 9 -82 15 -144 98 -359 169 -438 20 -22 37 -43 37
-46 0 -9 29 -20 65 -26 25 -3 38 3 73 35 34 32 42 46 42 75 0 29 -10 45 -55
94 -107 112 -229 321 -249 425 -2 13 -7 30 -10 38 -10 28 -15 73 -7 64 4 -5
16 -29 25 -54 52 -137 172 -279 281 -334 94 -48 188 -23 231 61 10 21 22 40
27 41 4 2 7 9 7 16 0 20 69 87 106 102 19 8 35 14 36 13 2 0 28 12 58 28 123
63 112 169 -30 294 -54 47 -199 129 -230 129 -9 0 -20 4 -25 9 -13 11 -131 46
-212 62 -35 7 -63 17 -63 21 0 4 3 7 8 6 34 -9 308 79 406 130 116 61 236 191
231 252 -5 75 -27 99 -137 145 -87 36 -119 65 -166 150 -52 92 -75 109 -155
109 -52 0 -70 -5 -108 -29 -116 -74 -173 -140 -240 -275 -35 -71 -89 -223 -89
-252 0 -38 -16 -16 -29 40 -7 31 -16 62 -19 67 -4 6 -7 15 -8 21 -3 18 -76
178 -84 184 -4 3 -10 15 -14 26 -6 21 -97 119 -145 157 -67 53 -157 77 -216
55z"/>
</g>
</svg>
