<?xml version="1.0" standalone="no"?>
<!DOCTYPE svg PUBLIC "-//W3C//DTD SVG 20010904//EN"
 "http://www.w3.org/TR/2001/REC-SVG-20010904/DTD/svg10.dtd">
<svg version="1.0" xmlns="http://www.w3.org/2000/svg"
 width="70.000000pt" height="70.000000pt" viewBox="0 0 70.000000 70.000000"
 preserveAspectRatio="xMidYMid meet">
<metadata>
Created by potrace 1.14, written by Peter Selinger 2001-2017
</metadata>
<g transform="translate(0.000000,70.000000) scale(0.100000,-0.100000)"
fill="#000000" stroke="none">
<path d="M219 605 c-14 -8 -32 -28 -39 -45 -7 -16 -18 -30 -25 -30 -23 0 -63
-40 -70 -70 -4 -19 -1 -41 9 -62 15 -30 15 -33 -5 -54 -40 -43 -20 -117 41
-149 17 -9 30 -20 30 -26 0 -5 11 -21 25 -34 18 -18 35 -25 65 -25 27 0 47 -7
60 -20 26 -26 45 -25 72 2 16 16 32 21 56 19 37 -3 79 20 90 49 4 10 23 29 42
42 62 42 73 99 29 147 -18 20 -19 22 -3 46 22 34 11 88 -23 115 -14 11 -31 20
-38 20 -7 0 -16 11 -19 25 -7 28 -59 65 -91 65 -11 0 -33 -8 -50 -18 -29 -18
-31 -18 -60 0 -36 21 -61 22 -96 3z m271 -119 c0 -6 -18 -29 -40 -51 -21 -21
-37 -42 -33 -48 3 -5 -4 -4 -16 2 -31 17 -26 34 24 80 43 40 65 45 65 17z
m-216 -22 c20 -20 36 -39 37 -42 0 -4 2 -15 4 -24 4 -22 -21 -12 -61 22 -42
36 -57 58 -49 70 11 18 32 11 69 -26z m-114 -20 c0 -8 -19 -13 -24 -6 -3 5 1
9 9 9 8 0 15 -2 15 -3z m150 -112 c0 -24 -90 -114 -109 -110 -27 5 -18 25 33
78 50 52 76 63 76 32z m151 -32 c52 -53 58 -67 33 -77 -19 -7 -114 83 -114
109 0 32 31 19 81 -32z"/>
</g>
</svg>
